<svg width="45" height="42" viewBox="0 0 45 42" fill="none" xmlns="http://www.w3.org/2000/svg">
<path d="M44.2136 21.1C44.2136 26.8713 41.7392 32.0963 37.7387 35.8785C33.7381 39.6606 28.2114 41.9999 22.1068 41.9999C16.0022 41.9999 10.4755 39.6606 6.47493 35.8785C2.47439 32.0963 0 26.8713 0 21.1C0 15.3286 2.47439 10.1036 6.47493 6.32142C10.4755 2.53926 16.0022 0.199951 22.1068 0.199951C28.2114 0.199951 33.7381 2.53926 37.7387 6.32142C41.7392 10.1036 44.2136 15.3286 44.2136 21.1Z" fill="white" fill-opacity="0.1"/>
<g clip-path="url(#clip0)">
<path d="M32.1357 17.186C32.0886 16.1765 31.9159 15.4824 31.6685 14.881C31.4134 14.2427 31.0208 13.6711 30.5064 13.196C30.0038 12.7135 29.3953 12.3385 28.7279 12.1011C28.0881 11.8672 27.3578 11.7039 26.29 11.6594C25.2141 11.6111 24.8726 11.6 22.1441 11.6C19.4155 11.6 19.074 11.6111 18.0022 11.6557C16.9343 11.7002 16.2002 11.8636 15.5642 12.0973C14.8888 12.3385 14.2843 12.7097 13.7817 13.196C13.2714 13.6711 12.8749 14.2464 12.6236 14.8774C12.3762 15.4824 12.2035 16.1727 12.1564 17.1823C12.1054 18.1993 12.0936 18.5222 12.0936 21.1018C12.0936 23.6814 12.1054 24.0043 12.1525 25.0176C12.1995 26.0272 12.3724 26.7212 12.6197 27.3226C12.8749 27.961 13.2714 28.5326 13.7817 29.0077C14.2843 29.4902 14.8928 29.8651 15.5602 30.1026C16.2002 30.3365 16.9303 30.4997 17.9983 30.5442C19.07 30.5889 19.4117 30.5999 22.1402 30.5999C24.8688 30.5999 25.2103 30.5889 26.2821 30.5442C27.35 30.4997 28.0841 30.3365 28.7201 30.1026C30.0707 29.6089 31.1385 28.5994 31.6607 27.3226C31.9079 26.7176 32.0808 26.0272 32.1279 25.0176C32.1749 24.0043 32.1867 23.6814 32.1867 21.1018C32.1867 18.5222 32.1828 18.1993 32.1357 17.186ZM30.3259 24.9434C30.2826 25.8713 30.1178 26.3724 29.9804 26.7064C29.6427 27.5342 28.9478 28.1911 28.0723 28.5104C27.7189 28.6403 27.1851 28.7961 26.2074 28.8369C25.1474 28.8815 24.8295 28.8926 22.1481 28.8926C19.4666 28.8926 19.1447 28.8815 18.0885 28.8369C17.107 28.7961 16.577 28.6403 16.2237 28.5104C15.788 28.3581 15.3914 28.1169 15.0695 27.8014C14.7358 27.4933 14.4806 27.1221 14.3196 26.7102C14.1822 26.3762 14.0173 25.8713 13.9742 24.9472C13.927 23.945 13.9153 23.6443 13.9153 21.1092C13.9153 18.5741 13.927 18.2698 13.9742 17.2714C14.0173 16.3435 14.1822 15.8424 14.3196 15.5084C14.4806 15.0963 14.7358 14.7215 15.0735 14.4171C15.3992 14.1016 15.7918 13.8603 16.2276 13.7082C16.581 13.5783 17.115 13.4225 18.0925 13.3816C19.1525 13.3371 19.4706 13.3259 22.1519 13.3259C24.8373 13.3259 25.1553 13.3371 26.2114 13.3816C27.1929 13.4225 27.7229 13.5783 28.0763 13.7082C28.512 13.8603 28.9086 14.1016 29.2304 14.4171C29.5642 14.7252 29.8193 15.0963 29.9804 15.5084C30.1178 15.8424 30.2826 16.3471 30.3259 17.2714C30.373 18.2736 30.3848 18.5741 30.3848 21.1092C30.3848 23.6443 30.373 23.9413 30.3259 24.9434Z" fill="white"/>
<path d="M22.1441 16.2209C19.2939 16.2209 16.9814 18.4071 16.9814 21.1018C16.9814 23.7965 19.2939 25.9826 22.1441 25.9826C24.9944 25.9826 27.3067 23.7965 27.3067 21.1018C27.3067 18.4071 24.9944 16.2209 22.1441 16.2209ZM22.1441 24.2679C20.295 24.2679 18.7952 22.85 18.7952 21.1018C18.7952 19.3535 20.295 17.9357 22.1441 17.9357C23.9933 17.9357 25.493 19.3535 25.493 21.1018C25.493 22.85 23.9933 24.2679 22.1441 24.2679V24.2679Z" fill="white"/>
<path d="M28.7163 16.028C28.7163 16.6572 28.1766 17.1675 27.5109 17.1675C26.8453 17.1675 26.3056 16.6572 26.3056 16.028C26.3056 15.3986 26.8453 14.8885 27.5109 14.8885C28.1766 14.8885 28.7163 15.3986 28.7163 16.028V16.028Z" fill="white"/>
</g>
<defs>
<clipPath id="clip0">
<rect width="20.0971" height="19" fill="white" transform="translate(12.0583 11.6)"/>
</clipPath>
</defs>
</svg>
